<svg width="817" height="641" viewBox="0 0 817 641" fill="none" xmlns="http://www.w3.org/2000/svg">
<rect width="817" height="641" fill="white"/>
<g id="undraw_Dark_analytics_re_2kvy 1" clip-path="url(#clip0)">
<path id="Vector" d="M793.72 640.5H207.72C201.755 640.493 196.036 638.121 191.818 633.902C187.6 629.684 185.227 623.965 185.22 618V334C185.227 328.035 187.6 322.316 191.818 318.098C196.036 313.879 201.755 311.507 207.72 311.5H793.72C799.686 311.507 805.405 313.879 809.623 318.098C813.841 322.316 816.214 328.035 816.22 334V618C816.214 623.965 813.841 629.684 809.623 633.902C805.405 638.121 799.686 640.493 793.72 640.5Z" fill="#3F3D56"/>
<path id="Vector_2" d="M719.566 475H280.763V477H719.566V475Z" fill="#F0F0F0"/>
<path id="Vector_3" d="M719.566 515H280.763V517H719.566V515Z" fill="#F0F0F0"/>
<path id="Vector_4" d="M719.566 555H280.763V557H719.566V555Z" fill="#F0F0F0"/>
<g id="Group" opacity="0.2">
<path id="Vector_5" opacity="0.2" d="M719.199 458.713C706.174 444.629 684.411 441.981 665.708 446.251C647.005 450.521 630.214 460.511 612.824 468.611C595.434 476.711 576.126 483.099 557.288 479.476C539.096 475.977 524.069 463.744 508.466 453.757C492.864 443.77 473.855 435.54 456.213 441.191C434.375 448.185 424.314 472.632 408.628 489.357C400.52 498.001 390.609 504.754 379.597 509.135C368.585 513.516 356.743 515.417 344.914 514.704C333.084 513.991 321.556 510.681 311.151 505.009C300.745 499.337 291.716 491.443 284.706 481.888V556.627H718.055L719.199 458.713Z" fill="#6C63FF"/>
</g>
<path id="Vector_6" d="M719.566 395H280.763V397H719.566V395Z" fill="#F0F0F0"/>
<path id="Vector_7" d="M719.566 435H280.763V437H719.566V435Z" fill="#F0F0F0"/>
<path id="Vector_8" d="M283.41 482.645C302.103 507.889 334.417 520.855 365.327 514.778C380.887 511.715 395.256 504.293 406.759 493.376C417.138 483.446 424.277 470.791 433.478 459.863C437.934 454.571 442.918 449.616 448.922 446.096C455.786 442.117 463.701 440.329 471.609 440.969C489.298 442.253 504.491 452.808 518.748 462.38C532.604 471.683 547.185 480.726 564.272 481.875C582.25 483.084 599.731 476.494 615.693 468.912C632.03 461.152 647.957 451.916 665.728 447.786C680.207 444.42 696.677 445.057 709.672 452.894C712.796 454.789 715.645 457.103 718.138 459.774C719.463 461.183 721.582 459.059 720.259 457.653C710.22 446.974 695.443 442.701 681.099 442.897C664.361 443.125 648.655 449.542 633.791 456.7C617.27 464.657 601.046 473.802 582.89 477.494C573.886 479.478 564.562 479.505 555.547 477.575C547.275 475.658 539.602 471.901 532.348 467.566C517.756 458.847 504.555 447.811 488.461 441.815C473.67 436.304 457.5 436.215 444.24 445.547C432.825 453.582 425.223 465.726 417.024 476.748C412.786 482.688 407.953 488.179 402.599 493.137C396.447 498.577 389.497 503.042 381.991 506.376C367.15 513.052 350.604 514.969 334.629 511.861C319.142 508.718 304.909 501.123 293.677 490.006C290.898 487.246 288.332 484.279 286.001 481.131C284.864 479.596 282.259 481.09 283.41 482.645H283.41Z" fill="#6C63FF"/>
<path id="Vector_9" d="M468.976 450.28C474.499 450.28 478.976 445.803 478.976 440.28C478.976 434.757 474.499 430.28 468.976 430.28C463.453 430.28 458.976 434.757 458.976 440.28C458.976 445.803 463.453 450.28 468.976 450.28Z" fill="#6C63FF"/>
<path id="Vector_10" d="M678.976 453.28C684.499 453.28 688.976 448.803 688.976 443.28C688.976 437.757 684.499 433.28 678.976 433.28C673.453 433.28 668.976 437.757 668.976 443.28C668.976 448.803 673.453 453.28 678.976 453.28Z" fill="#6C63FF"/>
<path id="Vector_11" d="M355.976 524.28C361.499 524.28 365.976 519.803 365.976 514.28C365.976 508.757 361.499 504.28 355.976 504.28C350.453 504.28 345.976 508.757 345.976 514.28C345.976 519.803 350.453 524.28 355.976 524.28Z" fill="#6C63FF"/>
<path id="Vector_12" d="M141.293 213.496C140.028 214.023 138.893 214.821 137.969 215.834C137.045 216.846 136.355 218.049 135.946 219.358C135.538 220.667 135.421 222.049 135.605 223.407C135.788 224.766 136.267 226.068 137.008 227.221L108.665 267.715L117.554 277.746L150.582 229.753C152.437 228.38 153.724 226.374 154.199 224.115C154.674 221.857 154.304 219.502 153.159 217.499C152.014 215.495 150.173 213.98 147.986 213.243C145.8 212.505 143.418 212.595 141.293 213.496H141.293Z" fill="#FFB6B6"/>
<path id="Vector_13" d="M162.359 627.135H150.099L144.267 579.847L162.361 579.848L162.359 627.135Z" fill="#FFB6B6"/>
<path id="Vector_14" d="M165.485 639.019L125.955 639.018V638.518C125.955 634.437 127.576 630.524 130.462 627.638C133.347 624.753 137.261 623.132 141.341 623.132H141.342L165.486 623.133L165.485 639.019Z" fill="#2F2E41"/>
<path id="Vector_15" opacity="0.1" d="M20.9689 634.885L19.9689 634.655L20.9689 634.885Z" fill="black"/>
<path id="Vector_16" opacity="0.1" d="M21.6289 635.015L21.1389 634.945L21.6789 635.045L21.6289 635.015Z" fill="black"/>
<path id="Vector_17" d="M131.019 453L143.811 614.39H165.536L171.531 453H131.019Z" fill="#CACACA"/>
<path id="Vector_18" d="M165.019 285.745L156.362 281.373L126.599 279.435L129.729 264.568H106.249L97.206 295.765L152.179 305.89L165.019 285.745Z" fill="#CACACA"/>
<path id="Vector_19" d="M180.894 266.831C196.877 266.831 209.834 253.875 209.834 237.891C209.834 221.908 196.877 208.952 180.894 208.952C164.911 208.952 151.954 221.908 151.954 237.891C151.954 253.875 164.911 266.831 180.894 266.831Z" fill="#2F2E41"/>
<path id="Vector_20" d="M158.305 222.288C162.981 217.611 163.929 210.977 160.422 207.469C156.914 203.962 150.28 204.91 145.603 209.586C140.927 214.263 139.979 220.897 143.486 224.405C146.994 227.912 153.628 226.964 158.305 222.288Z" fill="#2F2E41"/>
<path id="Vector_21" d="M211.057 213.098C213.005 208.536 209.655 202.732 203.573 200.134C197.491 197.536 190.98 199.128 189.032 203.689C187.083 208.251 190.434 214.055 196.516 216.653C202.598 219.251 209.108 217.659 211.057 213.098Z" fill="#2F2E41"/>
<path id="Vector_22" d="M181.812 269.361C195.376 269.361 206.373 258.365 206.373 244.8C206.373 231.235 195.376 220.239 181.812 220.239C168.247 220.239 157.251 231.235 157.251 244.8C157.251 258.365 168.247 269.361 181.812 269.361Z" fill="#FFB6B6"/>
<path id="Vector_23" d="M156.004 229.351C161.616 233.22 168.278 235.278 175.094 235.251C172.663 236.937 169.895 238.076 166.981 238.589C176.044 240.533 185.411 240.586 194.495 238.744C196.514 238.42 198.463 237.751 200.255 236.766C201.148 236.267 201.926 235.586 202.538 234.767C203.151 233.947 203.584 233.008 203.81 232.011C204.413 228.562 201.726 225.429 198.934 223.318C194.658 220.134 189.729 217.941 184.501 216.896C179.274 215.852 173.88 215.982 168.709 217.278C165.333 218.151 161.951 219.625 159.758 222.337C157.565 225.048 156.915 229.228 159.005 232.02L156.004 229.351Z" fill="#2F2E41"/>
<path id="Vector_24" d="M149.723 534.457L143.168 544.817L100.088 524.463L109.763 509.173L149.723 534.457Z" fill="#FFB6B6"/>
<path id="Vector_25" d="M161.438 538.169L140.301 571.574L139.879 571.307C136.43 569.125 133.99 565.663 133.094 561.682C132.199 557.7 132.921 553.527 135.103 550.078L135.103 550.077L148.013 529.674L161.438 538.169Z" fill="#2F2E41"/>
<path id="Vector_26" d="M214.395 272.699L156.362 281.373L146.389 304.405C146.389 304.405 124.177 314.677 138.949 339.339L121.729 401.795C121.729 401.795 41.1729 442.67 42.6967 470.085C44.2205 497.5 126.749 542.597 126.749 542.597L138.317 523.884L90.6389 476.655L135.279 462.44L170.489 464.105C170.489 464.105 208.743 434.19 185.982 384.345L201.679 338.344L214.395 272.699Z" fill="#CACACA"/>
<path id="Vector_27" d="M171.702 414.445C173.072 414.394 174.414 414.043 175.634 413.418C176.853 412.792 177.921 411.906 178.761 410.823C179.602 409.74 180.195 408.486 180.498 407.149C180.801 405.812 180.808 404.425 180.517 403.086L221.233 375.063L216.414 362.555L168.685 395.966C166.467 396.603 164.56 398.032 163.325 399.982C162.091 401.932 161.614 404.267 161.986 406.545C162.358 408.823 163.552 410.885 165.343 412.341C167.134 413.797 169.396 414.546 171.702 414.445V414.445Z" fill="#FFB6B6"/>
<path id="Vector_28" d="M201.479 282.079L213.395 272.699C213.395 272.699 229.181 284.644 229.201 293.572C229.22 302.5 231.844 373.354 231.844 373.354L210.56 388.6L190.659 376.524L204.339 359.075L197.888 318.362L201.479 282.079Z" fill="#CACACA"/>
<path id="Vector_29" d="M382 640H0.999992C0.734776 640 0.480421 639.895 0.292885 639.707C0.105348 639.52 -7.62939e-06 639.265 -7.62939e-06 639C-7.62939e-06 638.735 0.105348 638.48 0.292885 638.293C0.480421 638.105 0.734776 638 0.999992 638H382C382.265 638 382.52 638.105 382.707 638.293C382.895 638.48 383 638.735 383 639C383 639.265 382.895 639.52 382.707 639.707C382.52 639.895 382.265 640 382 640Z" fill="#3F3D56"/>
</g>
<defs>
<clipPath id="clip0">
<rect width="816.22" height="640.5" fill="white"/>
</clipPath>
</defs>
</svg>
