<svg width="657" height="630" viewBox="0 0 657 630" fill="none" xmlns="http://www.w3.org/2000/svg">
<g id="undraw_Progress_overview_re_tvcl 1" clip-path="url(#clip0)">
<path id="Vector" d="M15.5 0C11.3905 0.004616 7.45071 1.63914 4.54489 4.54495C1.63908 7.45077 0.00458548 11.3906 -3.05176e-05 15.5V533.467C0.00458548 537.576 1.63908 541.516 4.54489 544.422C7.45071 547.328 11.3905 548.962 15.5 548.967H410.373C414.483 548.962 418.423 547.328 421.328 544.422C424.234 541.516 425.869 537.576 425.873 533.467V15.5C425.869 11.3906 424.234 7.45078 421.328 4.54497C418.423 1.63916 414.483 0.00463713 410.373 0H15.5Z" fill="#E6E6E6"/>
<path id="Vector_2" d="M398.516 208.355H27.3576C22.983 208.35 18.7891 206.61 15.6958 203.517C12.6025 200.424 10.8625 196.23 10.8576 191.855V86.0811C10.8625 81.7065 12.6025 77.5126 15.6958 74.4193C18.7891 71.326 22.983 69.586 27.3576 69.5811H398.516C402.891 69.5859 407.085 71.3259 410.178 74.4192C413.272 77.5125 415.011 81.7065 415.016 86.0811V191.855C415.011 196.23 413.272 200.424 410.178 203.517C407.085 206.61 402.891 208.35 398.516 208.355Z" fill="white"/>
<path id="Vector_3" d="M398.516 369.844H27.3576C22.9831 369.839 18.7891 368.099 15.6958 365.006C12.6026 361.913 10.8625 357.719 10.8576 353.344V247.57C10.8625 243.195 12.6025 239.001 15.6958 235.908C18.7891 232.815 22.983 231.075 27.3576 231.07H398.516C402.891 231.075 407.085 232.815 410.178 235.908C413.272 239.001 415.011 243.195 415.016 247.57V353.344C415.011 357.719 413.272 361.913 410.178 365.006C407.085 368.099 402.891 369.839 398.516 369.844V369.844Z" fill="white"/>
<path id="Vector_4" d="M27.3576 393.56C23.2482 393.564 19.3083 395.199 16.4025 398.105C13.4967 401.01 11.8622 404.95 11.8576 409.06V514.833C11.8622 518.943 13.4967 522.882 16.4025 525.788C19.3083 528.694 23.2482 530.328 27.3576 530.333H398.516C402.626 530.328 406.566 528.694 409.471 525.788C412.377 522.882 414.012 518.943 414.016 514.833V409.06C414.012 404.95 412.377 401.01 409.471 398.105C406.566 395.199 402.626 393.564 398.516 393.56H27.3576Z" fill="white"/>
<path id="Vector_5" d="M403.788 32.2495C410.024 32.2495 415.081 27.1935 415.081 20.9565C415.081 14.7196 410.024 9.6636 403.788 9.6636C397.551 9.6636 392.495 14.7196 392.495 20.9565C392.495 27.1935 397.551 32.2495 403.788 32.2495Z" fill="white"/>
<path id="Vector_6" d="M48.342 311.75C54.5789 311.75 59.6349 306.694 59.6349 300.457C59.6349 294.22 54.5789 289.164 48.342 289.164C42.105 289.164 37.049 294.22 37.049 300.457C37.049 306.694 42.105 311.75 48.342 311.75Z" fill="#E6E6E6"/>
<path id="Vector_7" d="M178.211 309.991H90.1258C87.5972 309.991 85.1721 308.987 83.3841 307.199C81.5961 305.411 80.5916 302.986 80.5916 300.457C80.5916 297.928 81.5961 295.503 83.3841 293.715C85.1721 291.927 87.5972 290.923 90.1258 290.923H178.211C180.739 290.923 183.165 291.927 184.953 293.715C186.741 295.503 187.745 297.928 187.745 300.457C187.745 302.986 186.741 305.411 184.953 307.199C183.165 308.987 180.739 309.991 178.211 309.991Z" fill="#E6E6E6"/>
<path id="Vector_8" d="M249.074 312.315C255.311 312.315 260.367 307.259 260.367 301.022C260.367 294.785 255.311 289.729 249.074 289.729C242.837 289.729 237.781 294.785 237.781 301.022C237.781 307.259 242.837 312.315 249.074 312.315Z" fill="#E6E6E6"/>
<path id="Vector_9" d="M378.943 310.556H290.858C288.329 310.556 285.904 309.552 284.116 307.764C282.328 305.976 281.324 303.55 281.324 301.022C281.324 298.493 282.328 296.068 284.116 294.28C285.904 292.492 288.329 291.487 290.858 291.487H378.943C381.472 291.487 383.897 292.492 385.685 294.28C387.473 296.068 388.477 298.493 388.477 301.022C388.477 303.55 387.473 305.976 385.685 307.764C383.897 309.552 381.472 310.556 378.943 310.556V310.556Z" fill="#E6E6E6"/>
<path id="Vector_10" d="M409.668 16.673L408.071 15.076L403.788 19.36L399.504 15.076L397.907 16.673L402.191 20.957L397.907 25.24L399.504 26.837L403.788 22.553L408.071 26.837L409.668 25.24L405.385 20.957L409.668 16.673Z" fill="#E6E6E6"/>
<path id="Vector_11" d="M48.342 150.261C54.5789 150.261 59.6349 145.205 59.6349 138.968C59.6349 132.731 54.5789 127.675 48.342 127.675C42.105 127.675 37.049 132.731 37.049 138.968C37.049 145.205 42.105 150.261 48.342 150.261Z" fill="#E6E6E6"/>
<path id="Vector_12" d="M379.79 147.373H111.018C108.491 147.37 106.068 146.365 104.282 144.577C102.496 142.789 101.493 140.366 101.493 137.839C101.493 135.312 102.496 132.888 104.282 131.1C106.068 129.312 108.491 128.307 111.018 128.304H379.79C382.317 128.307 384.74 129.312 386.526 131.1C388.312 132.888 389.315 135.312 389.315 137.839C389.315 140.366 388.312 142.789 386.526 144.577C384.74 146.365 382.317 147.37 379.79 147.373V147.373Z" fill="#E6E6E6"/>
<path id="longbar" d="M332.924 147.373H93.5138C90.9851 147.373 88.56 146.369 86.7719 144.58C84.9839 142.792 83.9794 140.367 83.9794 137.839C83.9794 135.31 84.9839 132.885 86.7719 131.097C88.56 129.309 90.9851 128.304 93.5138 128.304H332.924C335.451 128.307 337.874 129.312 339.66 131.1C341.446 132.888 342.449 135.312 342.449 137.839C342.449 140.366 341.446 142.789 339.66 144.577C337.874 146.365 335.451 147.37 332.924 147.373V147.373Z" fill="#6C63FF"/>
<path id="Vector_13" d="M48.342 473.239C54.5789 473.239 59.6349 468.183 59.6349 461.946C59.6349 455.709 54.5789 450.653 48.342 450.653C42.105 450.653 37.049 455.709 37.049 461.946C37.049 468.183 42.105 473.239 48.342 473.239Z" fill="#E6E6E6"/>
<path id="Vector_14" d="M379.79 470.351H111.018C108.489 470.351 106.064 469.347 104.276 467.559C102.488 465.771 101.484 463.346 101.484 460.817C101.484 458.288 102.488 455.863 104.276 454.075C106.064 452.287 108.489 451.283 111.018 451.283H379.79C382.319 451.283 384.744 452.287 386.532 454.075C388.32 455.863 389.324 458.288 389.324 460.817C389.324 463.346 388.32 465.771 386.532 467.559C384.744 469.347 382.319 470.351 379.79 470.351Z" fill="#E6E6E6"/>
<path id="lowestbar" d="M236.652 470.351H93.5138C90.9852 470.351 88.5601 469.347 86.7721 467.559C84.9841 465.771 83.9796 463.346 83.9796 460.817C83.9796 458.288 84.9841 455.863 86.7721 454.075C88.5601 452.287 90.9852 451.283 93.5138 451.283H236.652C239.181 451.283 241.606 452.287 243.394 454.075C245.182 455.863 246.186 458.288 246.186 460.817C246.186 463.346 245.182 465.771 243.394 467.559C241.606 469.347 239.181 470.351 236.652 470.351Z" fill="#6C63FF"/>
<path id="leftshortbar" d="M105.654 309.991H90.1259C87.5972 309.991 85.1722 308.987 83.3842 307.199C81.5962 305.411 80.5917 302.986 80.5917 300.457C80.5917 297.928 81.5962 295.503 83.3842 293.715C85.1722 291.927 87.5972 290.923 90.1259 290.923H105.654C108.182 290.923 110.607 291.927 112.395 293.715C114.183 295.503 115.188 297.928 115.188 300.457C115.188 302.986 114.183 305.411 112.395 307.199C110.607 308.987 108.182 309.991 105.654 309.991Z" fill="#6C63FF"/>
<path id="rightshortbar" d="M339.418 310.556H290.858C288.329 310.556 285.904 309.552 284.116 307.764C282.328 305.976 281.324 303.55 281.324 301.022C281.324 298.493 282.328 296.068 284.116 294.28C285.904 292.492 288.329 291.487 290.858 291.487H339.418C341.945 291.49 344.367 292.496 346.153 294.283C347.939 296.071 348.943 298.495 348.943 301.022C348.943 303.549 347.939 305.972 346.153 307.76C344.367 309.548 341.945 310.554 339.418 310.556V310.556Z" fill="#6C63FF"/>
<path id="Vector_15" d="M577.779 424.817C579.241 424.67 580.654 424.204 581.917 423.451C583.18 422.699 584.263 421.679 585.089 420.464C585.916 419.248 586.465 417.865 586.7 416.414C586.934 414.963 586.847 413.478 586.445 412.064L615.72 391.57L598.454 384.733L573.302 405.243C570.971 406.075 569.026 407.733 567.836 409.904C566.647 412.074 566.294 414.605 566.846 417.018C567.398 419.431 568.815 421.557 570.83 422.995C572.845 424.432 575.318 425.08 577.779 424.817L577.779 424.817Z" fill="#A0616A"/>
<path id="Vector_16" d="M591.424 409.851C590.795 409.85 590.172 409.716 589.597 409.46C588.946 409.176 588.372 408.74 587.924 408.189C587.475 407.638 587.165 406.988 587.019 406.292L585.054 397.165C584.886 396.383 584.929 395.57 585.18 394.809C585.43 394.049 585.879 393.369 586.479 392.84L603.84 377.554L586.703 341.649C585.511 339.152 585.306 336.297 586.13 333.656C586.954 331.015 588.746 328.782 591.146 327.406C593.546 326.03 596.378 325.612 599.073 326.235C601.769 326.859 604.129 328.478 605.682 330.768L627.628 363.139C629.259 365.523 630.384 368.216 630.933 371.051C631.483 373.887 631.446 376.805 630.824 379.625C630.136 382.606 628.834 385.412 627.003 387.863C625.172 390.314 622.851 392.357 620.187 393.863L593.676 409.239C592.993 409.638 592.216 409.849 591.424 409.851V409.851Z" fill="#CCCCCC"/>
<path id="Vector_17" d="M494.16 390.336C495.382 391.152 496.769 391.69 498.222 391.913C499.675 392.135 501.16 392.036 502.57 391.623C503.981 391.209 505.284 390.492 506.388 389.52C507.491 388.549 508.368 387.348 508.957 386.001L544.583 388.79L535.601 372.537L503.147 372.38C500.819 371.54 498.263 371.584 495.965 372.503C493.667 373.422 491.786 375.152 490.678 377.366C489.57 379.579 489.313 382.122 489.954 384.512C490.596 386.903 492.092 388.975 494.16 390.336V390.336Z" fill="#A0616A"/>
<path id="Vector_18" d="M579.356 305.232C592.921 305.232 603.917 294.236 603.917 280.671C603.917 267.107 592.921 256.11 579.356 256.11C565.791 256.11 554.795 267.107 554.795 280.671C554.795 294.236 565.791 305.232 579.356 305.232Z" fill="#A0616A"/>
<path id="Vector_19" d="M507.039 616.668L495.289 613.172L503.182 566.184L520.525 571.345L507.039 616.668Z" fill="#A0616A"/>
<path id="Vector_20" d="M506.647 628.951L468.758 617.677L468.901 617.198C469.477 615.261 470.429 613.457 471.702 611.888C472.976 610.319 474.546 609.017 476.323 608.055C478.099 607.093 480.048 606.49 482.058 606.281C484.068 606.073 486.099 606.262 488.036 606.838L488.037 606.838L511.178 613.724L506.647 628.951Z" fill="#2F2E41"/>
<path id="Vector_21" d="M635.778 616.067L623.518 616.066L617.686 568.778L629.78 568.779L635.778 616.067Z" fill="#A0616A"/>
<path id="Vector_22" d="M638.904 627.951L599.374 627.949V627.449C599.374 625.429 599.772 623.428 600.545 621.561C601.318 619.694 602.451 617.998 603.88 616.569C605.309 615.141 607.005 614.007 608.872 613.234C610.739 612.461 612.74 612.063 614.76 612.063H614.761L638.905 612.064L638.904 627.951Z" fill="#2F2E41"/>
<path id="Vector_23" d="M511.56 602.766H499.25C498.59 602.766 497.939 602.621 497.341 602.341C496.744 602.061 496.215 601.653 495.793 601.146C495.371 600.639 495.065 600.045 494.898 599.407C494.73 598.769 494.705 598.101 494.824 597.452L512.065 503.586C512.049 435.199 538.955 395.589 539.227 395.197L539.555 394.723L589.842 398.826L639.965 596.37C640.129 597.017 640.148 597.691 640.019 598.346C639.89 599 639.618 599.617 639.222 600.153C638.825 600.689 638.314 601.131 637.726 601.445C637.138 601.76 636.488 601.94 635.822 601.972L621.991 602.643C621.055 602.691 620.128 602.445 619.339 601.939C618.55 601.432 617.94 600.691 617.595 599.82L564.606 467.352C564.501 467.062 564.305 466.814 564.048 466.644C563.791 466.475 563.486 466.392 563.179 466.409C562.872 466.412 562.574 466.511 562.326 466.691C562.078 466.872 561.893 467.125 561.797 467.416L515.81 599.743C515.503 600.626 514.929 601.391 514.167 601.933C513.406 602.474 512.494 602.765 511.56 602.766V602.766Z" fill="#2F2E41"/>
<path id="Vector_24" d="M590.895 402.793L590.511 402.765L536.971 398.724L546.362 338.994C547.393 332.327 550.551 326.172 555.367 321.447C560.183 316.723 566.398 313.682 573.084 312.78V312.78C573.495 312.722 573.909 312.666 574.326 312.611C579.578 311.92 584.92 312.59 589.839 314.559C594.757 316.527 599.087 319.727 602.412 323.851C605.817 327.998 608.097 332.952 609.035 338.235C609.973 343.518 609.536 348.954 607.767 354.02L590.895 402.793Z" fill="#CCCCCC"/>
<path id="Vector_25" d="M563.66 387.196C561.487 388.941 558.99 390.24 556.314 391.018C553.638 391.796 550.834 392.038 548.064 391.731L517.077 388.395C516.369 388.319 515.689 388.076 515.093 387.685C514.497 387.295 514.002 386.768 513.649 386.15C513.297 385.531 513.096 384.837 513.063 384.125C513.031 383.413 513.168 382.704 513.463 382.056L517.596 372.985C517.932 372.245 518.462 371.611 519.13 371.148C519.798 370.686 520.579 370.414 521.39 370.36L543.975 368.846L551.39 329.764C551.868 327.255 553.206 324.992 555.173 323.363C557.14 321.734 559.613 320.842 562.167 320.839C563.71 320.832 565.237 321.154 566.646 321.784C568.055 322.413 569.313 323.336 570.337 324.49C572.279 326.712 573.276 329.604 573.117 332.55L571.68 371.297C571.585 374.227 570.881 377.105 569.613 379.748C568.345 382.392 566.541 384.742 564.316 386.651C564.1 386.837 563.881 387.019 563.66 387.196Z" fill="#CCCCCC"/>
<path id="Vector_26" d="M560.679 274.537C557.621 275.724 554.398 276.433 551.125 276.64C547.832 276.681 544.332 275.54 542.53 273.033C541.838 271.937 541.392 270.705 541.221 269.421C541.051 268.137 541.16 266.831 541.541 265.593C542.223 263.084 543.451 260.756 545.137 258.775C546.822 256.795 548.925 255.211 551.293 254.136C553.782 253.007 556.469 252.381 559.201 252.293C561.932 252.205 564.654 252.657 567.211 253.624C569.059 248.006 576.019 244.949 582.461 244.776C595.621 244.423 607.387 253.396 613.105 264.186C618.823 274.975 619.658 287.309 620.013 299.283C620.1 302.203 620.136 305.248 618.753 307.884C616.693 311.81 612.013 313.924 607.601 315.6C596.031 319.99 584.095 323.345 571.933 325.626C577.773 321.894 579.625 313.86 575.927 308.307C574.117 305.59 571.145 303.328 570.664 300.182C570.088 296.409 573.307 293.109 574.498 289.458C575.1 287.481 575.127 285.373 574.576 283.381C574.026 281.389 572.92 279.595 571.389 278.208C569.722 276.759 567.728 275.737 565.58 275.227C563.431 274.718 561.191 274.737 559.051 275.282" fill="#2F2E41"/>
<path id="Vector_27" d="M655.816 629.537H448.816C448.551 629.537 448.296 629.432 448.109 629.244C447.921 629.057 447.816 628.802 447.816 628.537C447.816 628.272 447.921 628.018 448.109 627.83C448.296 627.642 448.551 627.537 448.816 627.537H655.816C656.081 627.537 656.336 627.642 656.523 627.83C656.711 628.018 656.816 628.272 656.816 628.537C656.816 628.802 656.711 629.057 656.523 629.244C656.336 629.432 656.081 629.537 655.816 629.537Z" fill="#CCCCCC"/>
</g>
<defs>
<clipPath id="clip0">
<rect width="656.816" height="629.537" fill="white"/>
</clipPath>
</defs>
</svg>
