<svg width="527" height="458" viewBox="0 0 527 458" fill="none" xmlns="http://www.w3.org/2000/svg">
<g id="progressImg" filter="url(#filter0_d)">
<g clip-path="url(#clip0)">
<path id="Vector" d="M508.199 449.399H115.42C111.422 449.393 107.589 447.002 104.761 442.751C101.934 438.5 100.344 432.737 100.339 426.726V140.531C100.344 134.52 101.934 128.757 104.761 124.506C107.589 120.255 111.422 117.864 115.42 117.858H508.199C512.197 117.864 516.031 120.255 518.858 124.506C521.685 128.757 523.276 134.52 523.28 140.531V426.726C523.276 432.737 521.685 438.5 518.858 442.751C516.031 447.002 512.197 449.393 508.199 449.399Z" fill="#3F3D56"/>
<path id="Vector_2" d="M458.511 282.427H164.46V284.83H458.511V282.427Z" fill="#F0F0F0"/>
<path id="Vector_3" d="M458.511 323.269H164.46V325.672H458.511V323.269Z" fill="#F0F0F0"/>
<path id="Vector_4" d="M458.511 364.112H164.46V365.313H458.511V364.112Z" fill="#F0F0F0"/>
<g id="Group" opacity="0.2">
<path id="Vector_5" opacity="0.2" d="M458.351 266.255C449.615 252.02 435.018 249.343 422.474 253.659C409.93 257.974 398.668 268.072 387.005 276.26C375.342 284.447 362.392 290.904 349.757 287.242C337.555 283.705 327.476 271.34 317.012 261.246C306.548 251.151 293.798 242.833 281.965 248.544C267.319 255.614 260.571 280.324 250.05 297.229C244.613 305.967 237.965 312.792 230.579 317.22C223.193 321.648 215.251 323.57 207.317 322.849C199.383 322.128 191.651 318.783 184.672 313.05C177.693 307.317 171.637 299.338 166.935 289.679V365.223H457.583L458.351 266.255Z" fill="#6C63FF"/>
</g>
<path id="Vector_6" d="M458.511 201.944H164.46V204.347H458.511V201.944Z" fill="#F0F0F0"/>
<path id="Vector_7" d="M458.511 242.786H164.46V243.988H458.511V242.786Z" fill="#F0F0F0"/>
<path id="wave" d="M165.948 290.403C178.483 315.987 200.151 329.126 220.878 322.967C231.311 319.863 240.946 312.341 248.66 301.278C255.62 291.215 260.407 278.39 266.576 267.316C269.564 261.952 272.906 256.931 276.932 253.364C281.535 249.331 286.843 247.518 292.145 248.168C304.007 249.469 314.194 260.166 323.754 269.866C333.045 279.294 342.822 288.458 354.281 289.623C366.336 290.848 378.057 284.17 388.761 276.486C399.716 268.622 410.395 259.262 422.312 255.076C432.021 251.665 443.065 252.31 451.779 260.253C453.874 262.173 455.784 264.519 457.456 267.225C458.344 268.653 459.765 266.5 458.878 265.075C452.146 254.253 442.237 249.923 432.619 250.121C421.396 250.352 410.863 256.855 400.897 264.11C389.818 272.174 378.939 281.441 366.765 285.183C360.727 287.193 354.475 287.221 348.43 285.265C342.883 283.322 337.738 279.515 332.874 275.122C323.089 266.285 314.237 255.101 303.445 249.024C293.527 243.44 282.684 243.349 273.793 252.807C266.139 260.95 261.041 273.257 255.543 284.427C252.702 290.446 249.46 296.012 245.87 301.036C241.745 306.549 237.085 311.074 232.052 314.452C222.1 321.219 211.005 323.161 200.293 320.012C189.908 316.826 180.364 309.129 172.832 297.863C170.969 295.066 169.248 292.059 167.685 288.868C166.923 287.313 165.177 288.828 165.948 290.403H165.948Z" fill="#6C63FF"/>
<path id="Vector_8" d="M290.436 257.201C294.192 257.201 297.237 252.899 297.237 247.591C297.237 242.284 294.192 237.982 290.436 237.982C286.68 237.982 283.635 242.284 283.635 247.591C283.635 252.899 286.68 257.201 290.436 257.201Z" fill="#6C63FF"/>
<path id="Vector_9" d="M431.308 260.805C434.885 260.805 437.785 256.234 437.785 250.594C437.785 244.955 434.885 240.384 431.308 240.384C427.731 240.384 424.832 244.955 424.832 250.594C424.832 256.234 427.731 260.805 431.308 260.805Z" fill="#6C63FF"/>
<path id="Vector_10" d="M214.656 332.879C218.412 332.879 221.456 328.308 221.456 322.669C221.456 317.03 218.412 312.458 214.656 312.458C210.9 312.458 207.856 317.03 207.856 322.669C207.856 328.308 210.9 332.879 214.656 332.879Z" fill="#6C63FF"/>
<path id="Vector_11" d="M70.8889 18.9012C70.0466 19.427 69.2914 20.2234 68.6766 21.2342C68.0617 22.2449 67.6021 23.4456 67.3302 24.7515C67.0583 26.0574 66.9806 27.4368 67.1027 28.7926C67.2248 30.1484 67.5437 31.4475 68.0369 32.5985L49.1718 73.0102L55.0882 83.0216L77.0717 35.1257C78.3064 33.7552 79.1629 31.7533 79.479 29.4993C79.795 27.2452 79.5486 24.8956 78.7865 22.8958C78.0244 20.8959 76.7995 19.3847 75.3439 18.6484C73.8883 17.9122 72.3032 18.0021 70.8889 18.9012H70.8889Z" fill="#FFB6B6"/>
<path id="Vector_12" d="M84.7928 436.186H76.4547L72.4883 388.136L84.7942 388.137L84.7928 436.186Z" fill="#FFB6B6"/>
<path id="Vector_13" d="M86.7378 448.198L60.1826 448.197V447.705C60.1828 443.694 61.2718 439.848 63.2101 437.012C65.1485 434.176 67.7774 432.582 70.5186 432.582H70.5193L86.7383 432.583L86.7378 448.198Z" fill="#2F2E41"/>
<path id="Vector_14" opacity="0.1" d="M8.18055 443.255L7.69956 442.979L8.18055 443.255Z" fill="black"/>
<path id="Vector_15" opacity="0.1" d="M8.69302 443.412L8.45734 443.327L8.71708 443.448L8.69302 443.412Z" fill="black"/>
<path id="Vector_16" d="M64.0683 260.805L72.658 424.173H87.246L91.2716 260.805H64.0683Z" fill="#6C63FF"/>
<path id="Vector_17" d="M86.7383 91.3547L80.9503 86.9064L61.0512 84.9346L63.1439 69.808H47.4455L41.3995 101.55L78.1536 111.851L86.7383 91.3547Z" fill="#CACACA"/>
<path id="Vector_18" d="M97.101 72.2106C107.832 72.2106 116.531 59.0342 116.531 42.7803C116.531 26.5263 107.832 13.3499 97.101 13.3499C86.3698 13.3499 77.6704 26.5263 77.6704 42.7803C77.6704 59.0342 86.3698 72.2106 97.101 72.2106Z" fill="#2F2E41"/>
<path id="Vector_19" d="M82.1582 27.2835C85.2948 22.5565 85.9304 15.8506 83.578 12.3054C81.2256 8.7602 76.7759 9.71817 73.6394 14.4451C70.5028 19.1721 69.8672 25.878 72.2196 29.4232C74.572 32.9684 79.0217 32.0104 82.1582 27.2835Z" fill="#2F2E41"/>
<path id="Vector_20" d="M117.539 17.9942C118.846 13.3835 116.599 7.51704 112.519 4.89103C108.44 2.26502 104.074 3.8739 102.767 8.48456C101.46 13.0952 103.707 18.9617 107.787 21.5877C111.866 24.2137 116.232 22.6048 117.539 17.9942Z" fill="#2F2E41"/>
<path id="Vector_21" d="M98.0722 74.613C107.194 74.613 114.588 63.5879 114.588 49.9877C114.588 36.3874 107.194 25.3623 98.0722 25.3623C88.9506 25.3623 81.556 36.3874 81.556 49.9877C81.556 63.5879 88.9506 74.613 98.0722 74.613Z" fill="#FFB6B6"/>
<path id="Vector_22" d="M80.9091 34.4461C84.6284 38.5311 89.0428 40.7051 93.5599 40.6763C91.9486 42.4567 90.1143 43.6593 88.1833 44.2013C94.189 46.2542 100.396 46.3098 106.416 44.3645C107.754 44.0226 109.045 43.3159 110.233 42.2755C110.824 41.7489 111.34 41.0296 111.746 40.1646C112.152 39.2995 112.439 38.3081 112.589 37.2546C112.989 33.613 111.208 30.3045 109.357 28.0747C106.524 24.7129 103.257 22.3967 99.7935 21.2937C96.3296 20.1906 92.7551 20.3283 89.3287 21.6968C87.0914 22.6184 84.8501 24.1756 83.3969 27.0388C81.9436 29.902 81.5132 34.3162 82.8977 37.2645L80.9091 34.4461Z" fill="#2F2E41"/>
<path id="Vector_23" d="M76.3748 342.826L72.0125 353.3L43.3427 332.722L49.7814 317.263L76.3748 342.826Z" fill="#FFB6B6"/>
<path id="Vector_24" d="M84.1473 346.451L69.8466 380.929L69.5607 380.653C67.2276 378.401 65.5765 374.828 64.9705 370.719C64.3645 366.61 64.8533 362.302 66.3293 358.743L66.3296 358.742L75.0641 337.684L84.1473 346.451Z" fill="#2F2E41"/>
<path id="Vector_25" d="M119.77 78.2167L80.8077 86.9807L74.1122 110.25C74.1122 110.25 59.1998 120.628 69.1171 145.544L57.556 208.644C57.556 208.644 3.47255 249.94 4.49562 277.638C5.51868 305.336 60.9263 350.898 60.9263 350.898L68.6932 331.992L36.6829 284.276L66.6532 269.914L90.2924 271.597C90.2924 271.597 115.975 241.373 100.694 191.014L111.233 144.539L119.77 78.2167Z" fill="#6C63FF"/>
<path id="Vector_26" d="M91.3422 221.155C92.2538 221.104 93.1469 220.755 93.9586 220.132C94.7702 219.51 95.4807 218.628 96.04 217.55C96.5992 216.472 96.9937 215.224 97.1955 213.894C97.3973 212.563 97.4016 211.183 97.2081 209.849L124.304 181.959L121.097 169.511L89.3347 202.763C87.8586 203.398 86.5894 204.82 85.7677 206.761C84.9459 208.701 84.6287 211.025 84.8762 213.292C85.1236 215.56 85.9185 217.612 87.1102 219.061C88.302 220.51 89.8077 221.255 91.3422 221.155V221.155Z" fill="#FFB6B6"/>
<path id="Vector_27" d="M110.895 87.7442L118.953 78.2167C118.953 78.2167 129.628 90.3493 129.641 99.4177C129.655 108.486 131.428 180.453 131.428 180.453L117.035 195.938L103.578 183.673L112.829 165.949L108.467 124.597L110.895 87.7442Z" fill="#CACACA"/>
<path id="Vector_28" d="M232.444 449.399H-23.3457C-23.5237 449.399 -23.6945 449.273 -23.8204 449.048C-23.9463 448.822 -24.017 448.517 -24.017 448.198C-24.017 447.88 -23.9463 447.574 -23.8204 447.349C-23.6945 447.123 -23.5237 446.997 -23.3457 446.997H232.444C232.622 446.997 232.793 447.123 232.919 447.349C233.045 447.574 233.116 447.88 233.116 448.198C233.116 448.517 233.045 448.822 232.919 449.048C232.793 449.273 232.622 449.399 232.444 449.399Z" fill="#3F3D56"/>
</g>
</g>
<defs>
<filter id="filter0_d" x="0" y="0" width="527" height="458" filterUnits="userSpaceOnUse" color-interpolation-filters="sRGB">
<feFlood flood-opacity="0" result="BackgroundImageFix"/>
<feColorMatrix in="SourceAlpha" type="matrix" values="0 0 0 0 0 0 0 0 0 0 0 0 0 0 0 0 0 0 127 0"/>
<feOffset dy="4"/>
<feGaussianBlur stdDeviation="2"/>
<feColorMatrix type="matrix" values="0 0 0 0 0 0 0 0 0 0 0 0 0 0 0 0 0 0 0.25 0"/>
<feBlend mode="normal" in2="BackgroundImageFix" result="effect1_dropShadow"/>
<feBlend mode="normal" in="SourceGraphic" in2="effect1_dropShadow" result="shape"/>
</filter>
<clipPath id="clip0">
<rect x="4" width="519" height="450" rx="1" fill="white"/>
</clipPath>
</defs>
</svg>
