<svg width="680" height="651" viewBox="0 0 680 651" fill="none" xmlns="http://www.w3.org/2000/svg">
<g id="undraw_Progress_tracking_re_ulfg 1" clip-path="url(#clip0)">
<path id="Vector" d="M670.666 650.599H139.666C137.28 650.597 134.992 649.647 133.305 647.96C131.617 646.273 130.668 643.985 130.666 641.599V314.599C130.668 312.213 131.617 309.925 133.305 308.238C134.992 306.551 137.28 305.602 139.666 305.599H670.666C673.052 305.602 675.339 306.551 677.027 308.238C678.714 309.925 679.663 312.213 679.666 314.599V641.599C679.663 643.985 678.714 646.273 677.027 647.96C675.339 649.647 673.052 650.597 670.666 650.599ZM139.666 307.599C137.81 307.601 136.031 308.34 134.718 309.652C133.406 310.964 132.668 312.743 132.666 314.599V641.599C132.668 643.455 133.406 645.234 134.718 646.547C136.031 647.859 137.81 648.597 139.666 648.599H670.666C672.522 648.597 674.301 647.859 675.613 646.547C676.925 645.234 677.664 643.455 677.666 641.599V314.599C677.664 312.743 676.925 310.964 675.613 309.652C674.301 308.34 672.522 307.601 670.666 307.599H139.666Z" fill="#3F3D56"/>
<path id="Vector_2" d="M609.333 586.3H567.333C566.67 586.299 566.035 586.035 565.566 585.567C565.097 585.098 564.834 584.462 564.833 583.8V561.8C564.834 561.137 565.097 560.501 565.566 560.033C566.035 559.564 566.67 559.3 567.333 559.3H597.583C597.981 559.3 598.362 559.458 598.643 559.739C598.925 560.02 599.083 560.402 599.083 560.8C599.083 561.197 598.925 561.579 598.643 561.86C598.362 562.142 597.981 562.3 597.583 562.3H569.333C568.935 562.3 568.554 562.458 568.273 562.739C567.991 563.021 567.833 563.402 567.833 563.8V581.8C567.833 582.197 567.991 582.579 568.273 582.86C568.554 583.141 568.935 583.299 569.333 583.3H607.333C607.731 583.299 608.112 583.141 608.393 582.86C608.674 582.579 608.832 582.197 608.833 581.8V572.264C608.833 571.867 608.991 571.485 609.272 571.204C609.553 570.922 609.935 570.764 610.333 570.764C610.731 570.764 611.112 570.922 611.393 571.204C611.675 571.485 611.833 571.867 611.833 572.264V583.8C611.832 584.462 611.568 585.098 611.1 585.567C610.631 586.035 609.996 586.299 609.333 586.3V586.3Z" fill="#3F3D56"/>
<path id="Vector_3" d="M535.166 365.599H212.166C210.972 365.599 209.828 365.125 208.984 364.281C208.14 363.437 207.666 362.293 207.666 361.099C207.666 359.906 208.14 358.761 208.984 357.917C209.828 357.073 210.972 356.599 212.166 356.599H535.166C536.359 356.599 537.504 357.073 538.348 357.917C539.192 358.761 539.666 359.906 539.666 361.099C539.666 362.293 539.192 363.437 538.348 364.281C537.504 365.125 536.359 365.599 535.166 365.599Z" fill="#CCCCCC"/>
<path id="Vector_4" d="M535.166 402.599H212.166C210.972 402.599 209.828 402.125 208.984 401.281C208.14 400.437 207.666 399.293 207.666 398.099C207.666 396.906 208.14 395.761 208.984 394.917C209.828 394.073 210.972 393.599 212.166 393.599H535.166C536.359 393.599 537.504 394.073 538.348 394.917C539.192 395.761 539.666 396.906 539.666 398.099C539.666 399.293 539.192 400.437 538.348 401.281C537.504 402.125 536.359 402.599 535.166 402.599Z" fill="#CCCCCC"/>
<path id="Vector_5" d="M535.166 439.599H212.166C210.972 439.599 209.828 439.125 208.984 438.281C208.14 437.437 207.666 436.293 207.666 435.099C207.666 433.906 208.14 432.761 208.984 431.917C209.828 431.073 210.972 430.599 212.166 430.599H535.166C536.359 430.599 537.504 431.073 538.348 431.917C539.192 432.761 539.666 433.906 539.666 435.099C539.666 436.293 539.192 437.437 538.348 438.281C537.504 439.125 536.359 439.599 535.166 439.599Z" fill="#CCCCCC"/>
<path id="Vector_6" d="M535.166 476.599H212.166C210.972 476.599 209.828 476.125 208.984 475.281C208.14 474.437 207.666 473.293 207.666 472.099C207.666 470.906 208.14 469.761 208.984 468.917C209.828 468.073 210.972 467.599 212.166 467.599H535.166C536.359 467.599 537.504 468.073 538.348 468.917C539.192 469.761 539.666 470.906 539.666 472.099C539.666 473.293 539.192 474.437 538.348 475.281C537.504 476.125 536.359 476.599 535.166 476.599Z" fill="#CCCCCC"/>
<path id="Vector_7" d="M535.166 513.599H212.166C210.972 513.599 209.828 513.125 208.984 512.281C208.14 511.437 207.666 510.293 207.666 509.099C207.666 507.906 208.14 506.761 208.984 505.917C209.828 505.073 210.972 504.599 212.166 504.599H535.166C536.359 504.599 537.504 505.073 538.348 505.917C539.192 506.761 539.666 507.906 539.666 509.099C539.666 510.293 539.192 511.437 538.348 512.281C537.504 513.125 536.359 513.599 535.166 513.599V513.599Z" fill="#CCCCCC"/>
<path id="ball1" d="M589.166 374.099C596.345 374.099 602.166 368.279 602.166 361.099C602.166 353.919 596.345 348.099 589.166 348.099C581.986 348.099 576.166 353.919 576.166 361.099C576.166 368.279 581.986 374.099 589.166 374.099Z" fill="#6C63FF"/>
<path id="ball2" d="M589.166 411.099C596.345 411.099 602.166 405.279 602.166 398.099C602.166 390.919 596.345 385.099 589.166 385.099C581.986 385.099 576.166 390.919 576.166 398.099C576.166 405.279 581.986 411.099 589.166 411.099Z" fill="#FF6584"/>
<path id="ball3" d="M589.166 448.099C596.345 448.099 602.166 442.279 602.166 435.099C602.166 427.919 596.345 422.099 589.166 422.099C581.986 422.099 576.166 427.919 576.166 435.099C576.166 442.279 581.986 448.099 589.166 448.099Z" fill="#6C63FF"/>
<path id="ball4" d="M589.166 485.099C596.345 485.099 602.166 479.279 602.166 472.099C602.166 464.919 596.345 459.099 589.166 459.099C581.986 459.099 576.166 464.919 576.166 472.099C576.166 479.279 581.986 485.099 589.166 485.099Z" fill="#F2F2F2"/>
<path id="ball5" d="M589.166 522.099C596.345 522.099 602.166 516.279 602.166 509.099C602.166 501.919 596.345 496.099 589.166 496.099C581.986 496.099 576.166 501.919 576.166 509.099C576.166 516.279 581.986 522.099 589.166 522.099Z" fill="#F2F2F2"/>
<path id="Vector_8" d="M588.833 579.257C588.464 579.257 588.099 579.185 587.759 579.044C587.419 578.904 587.109 578.697 586.849 578.436L577.979 569.567C577.698 569.286 577.54 568.904 577.54 568.507C577.54 568.109 577.698 567.727 577.979 567.446C578.265 567.173 578.645 567.021 579.04 567.021C579.435 567.021 579.815 567.173 580.101 567.446L588.479 575.825C588.574 575.916 588.701 575.967 588.833 575.967C588.964 575.967 589.091 575.916 589.186 575.825L617.066 547.946C617.351 547.673 617.731 547.521 618.126 547.521C618.521 547.521 618.901 547.673 619.187 547.946C619.468 548.227 619.626 548.609 619.626 549.007C619.626 549.404 619.468 549.786 619.186 550.067L590.817 578.436C590.557 578.697 590.247 578.904 589.907 579.044C589.566 579.185 589.201 579.257 588.833 579.257Z" fill="#6C63FF"/>
<path id="Vector_9" opacity="0.1" d="M588.833 604.299C626.941 604.299 657.833 602.508 657.833 600.299C657.833 598.09 626.941 596.299 588.833 596.299C550.726 596.299 519.833 598.09 519.833 600.299C519.833 602.508 550.726 604.299 588.833 604.299Z" fill="black"/>
<path id="Vector_10" d="M79.7529 245.921H4.4805C3.29258 245.92 2.15368 245.447 1.31369 244.607C0.473704 243.767 0.00124945 242.628 0 241.441V202.012C0.00124945 200.824 0.473704 199.685 1.31369 198.845C2.15368 198.005 3.29258 197.533 4.4805 197.532H58.6945C59.048 197.531 59.3981 197.6 59.7249 197.735C60.0516 197.87 60.3486 198.068 60.5988 198.317C60.849 198.567 61.0474 198.864 61.1829 199.19C61.3183 199.517 61.388 199.867 61.388 200.22C61.388 200.573 61.3183 200.923 61.1829 201.25C61.0474 201.576 60.849 201.873 60.5988 202.123C60.3486 202.372 60.0516 202.57 59.7249 202.705C59.3981 202.84 59.048 202.909 58.6945 202.908H8.06485C7.35211 202.909 6.66878 203.193 6.16479 203.697C5.66081 204.201 5.37733 204.884 5.37656 205.597V237.856C5.37733 238.569 5.66081 239.252 6.16479 239.756C6.66878 240.26 7.35211 240.544 8.06485 240.544H76.1684C76.8811 240.544 77.5645 240.26 78.0685 239.756C78.5724 239.252 78.8559 238.569 78.8567 237.856V220.767C78.8567 220.054 79.1399 219.371 79.6441 218.866C80.1482 218.362 80.832 218.079 81.545 218.079C82.258 218.079 82.9418 218.362 83.4459 218.866C83.9501 219.371 84.2333 220.054 84.2333 220.767V241.441C84.2321 242.628 83.7596 243.767 82.9196 244.607C82.0796 245.447 80.9408 245.92 79.7529 245.921V245.921Z" fill="#3F3D56"/>
<path id="Vector_11" d="M43.0128 233.299C42.3525 233.3 41.6985 233.171 41.0883 232.918C40.4781 232.666 39.9238 232.296 39.4572 231.828L23.5611 215.933C23.0574 215.429 22.7744 214.745 22.7744 214.032C22.7744 213.32 23.0574 212.636 23.5611 212.132C24.0734 211.643 24.7543 211.37 25.4623 211.37C26.1703 211.37 26.8511 211.643 27.3634 212.132L42.3792 227.148C42.5495 227.312 42.7763 227.403 43.0123 227.403C43.2483 227.403 43.4752 227.312 43.6455 227.148L93.6118 177.184C94.1239 176.695 94.8046 176.423 95.5125 176.423C96.2203 176.423 96.901 176.695 97.4132 177.184C97.9171 177.688 98.2001 178.372 98.1999 179.085C98.1997 179.798 97.9164 180.481 97.4123 180.985L46.5692 231.828C46.1023 232.296 45.5479 232.666 44.9376 232.918C44.3273 233.17 43.6731 233.3 43.0128 233.299V233.299Z" fill="#6C63FF"/>
<path id="Vector_12" d="M142.789 310.638H233.789C235.998 310.638 237.789 308.847 237.789 306.638V285.638C237.789 283.429 235.998 281.638 233.789 281.638H142.789C140.579 281.638 138.789 283.429 138.789 285.638V306.638C138.789 308.847 140.579 310.638 142.789 310.638Z" fill="#2F2E41"/>
<path id="Vector_13" d="M231.789 280.638H93.7886C93.0007 280.638 92.2205 280.793 91.4925 281.094C90.7645 281.396 90.1031 281.838 89.5459 282.395C88.9888 282.952 88.5468 283.614 88.2453 284.342C87.9438 285.07 87.7886 285.85 87.7886 286.638V381.638C87.7887 383.229 88.4208 384.755 89.546 385.88C90.6712 387.006 92.1973 387.638 93.7886 387.638H110.789C112.38 387.638 113.906 387.006 115.031 385.88C116.156 384.755 116.789 383.229 116.789 381.638V309.638H138.789V382.638C138.789 384.229 139.421 385.755 140.546 386.88C141.671 388.006 143.197 388.638 144.789 388.638H161.789C163.38 388.638 164.906 388.006 166.031 386.88C167.156 385.755 167.789 384.229 167.789 382.638V309.638H231.789C233.38 309.638 234.906 309.006 236.031 307.88C237.156 306.755 237.789 305.229 237.789 303.638V286.638C237.789 285.85 237.633 285.07 237.332 284.342C237.03 283.614 236.588 282.952 236.031 282.395C235.474 281.838 234.813 281.396 234.085 281.094C233.357 280.793 232.577 280.638 231.789 280.638V280.638Z" fill="#2F2E41"/>
<path id="Vector_14" d="M266.428 311.198L135.276 308.437C134.385 308.418 133.51 308.201 132.714 307.802C131.918 307.403 131.22 306.831 130.672 306.129C130.124 305.427 129.739 304.611 129.546 303.742C129.352 302.872 129.355 301.971 129.553 301.102L161.485 161.302C161.788 159.977 162.531 158.794 163.594 157.946C164.657 157.099 165.976 156.638 167.335 156.638H201.675C212.965 156.638 223.91 160.524 232.672 167.643C241.433 174.761 247.478 184.679 249.789 195.73L272.427 303.971C272.612 304.855 272.595 305.769 272.377 306.645C272.16 307.521 271.747 308.337 271.171 309.032C270.594 309.726 269.868 310.282 269.047 310.657C268.226 311.032 267.33 311.217 266.428 311.198V311.198Z" fill="#2F2E41"/>
<path id="Vector_15" d="M185.208 144.173C214.766 144.173 238.727 120.212 238.727 90.6539C238.727 61.096 214.766 37.1347 185.208 37.1347C155.65 37.1347 131.689 61.096 131.689 90.6539C131.689 120.212 155.65 144.173 185.208 144.173Z" fill="#6C63FF"/>
<path id="Vector_16" d="M160.928 61.8372C154.682 60.3638 147.937 58.3815 143.482 53.4634C139.689 49.2766 137.91 42.8153 141.271 37.8517C144.34 33.3193 150.393 31.6563 155.489 30.8064C161.411 29.8185 167.497 29.6743 173.054 27.1537C175.783 25.9196 178.164 24.0304 179.986 21.6542C181.678 19.2788 183.146 16.752 184.372 14.106C185.534 11.5273 187.086 9.14299 188.974 7.03713C191.121 4.93455 193.891 3.5825 196.869 3.18273C203.573 2.16373 209.939 5.26216 215.214 9.10991C220.323 12.9092 224.957 17.3073 229.019 22.2098C238.242 33.201 244.59 46.3108 247.495 60.3619C247.885 62.2514 250.777 61.4517 250.387 59.5643C247.61 46.267 241.842 33.7767 233.519 23.0408C229.397 17.6877 224.662 12.8358 219.412 8.58418C213.976 4.20496 207.699 0.388447 200.549 0.0267968C197.243 -0.165805 193.942 0.489589 190.96 1.9308C188.22 3.37515 185.914 5.523 184.279 8.15366C180.91 13.263 179.285 19.8653 173.85 23.3214C168.345 26.8222 161.452 26.8567 155.207 27.8307C149.652 28.6971 143.468 30.5269 139.707 34.9877C135.548 39.922 135.704 46.6461 138.811 52.088C142.263 58.1346 148.677 61.4344 155.118 63.4017C156.772 63.9069 158.448 64.3331 160.131 64.7301C162.008 65.1729 162.809 62.281 160.928 61.8372V61.8372Z" fill="#2F2E41"/>
<path id="Vector_17" d="M190.991 108.523C187.684 108.43 183.568 108.315 180.401 106.001C179.457 105.283 178.681 104.367 178.128 103.318C177.576 102.269 177.259 101.112 177.201 99.9273C177.144 99.0858 177.282 98.2425 177.605 97.4632C177.927 96.6839 178.426 95.9898 179.061 95.4351C180.716 94.0357 183.133 93.7066 185.739 94.4742L183.04 74.7476L185.022 74.4761L188.195 97.6665L186.54 96.9077C184.621 96.0269 181.988 95.5806 180.352 96.9624C179.95 97.3238 179.637 97.7729 179.437 98.2749C179.237 98.777 179.156 99.3183 179.199 99.857C179.248 100.738 179.486 101.599 179.896 102.381C180.307 103.162 180.882 103.846 181.58 104.385C184.046 106.186 187.326 106.419 191.047 106.523L190.991 108.523Z" fill="#2F2E41"/>
<path id="Vector_18" d="M173.241 76.4488H162.469V78.4488H173.241V76.4488Z" fill="#2F2E41"/>
<path id="Vector_19" d="M207.241 76.4488H196.469V78.4488H207.241V76.4488Z" fill="#2F2E41"/>
<path id="Vector_20" d="M82.8381 258.872C81.5896 258.873 80.3672 258.514 79.3167 257.84C78.2662 257.165 77.4319 256.203 76.9133 255.067L70.7941 241.635C70.4403 240.859 70.2429 240.02 70.2132 239.167C70.1836 238.314 70.3222 237.463 70.6213 236.664C70.9204 235.864 71.374 235.131 71.9563 234.507C72.5385 233.883 73.238 233.38 74.0148 233.026L185.96 182.027C187.529 181.315 189.316 181.254 190.93 181.857C192.544 182.461 193.853 183.68 194.57 185.248L200.689 198.679C201.401 200.248 201.462 202.036 200.859 203.65C200.255 205.264 199.036 206.573 197.468 207.29L85.5231 258.288C84.6803 258.672 83.7646 258.872 82.8381 258.872V258.872Z" fill="#6C63FF"/>
</g>
<defs>
<clipPath id="clip0">
<rect width="679.666" height="650.599" fill="white"/>
</clipPath>
</defs>
</svg>
