<svg width="898" height="470" viewBox="0 0 898 470" fill="none" xmlns="http://www.w3.org/2000/svg">
<rect width="898" height="470" fill="white"/>
<g id="undraw_Dark_analytics_re_2kvy 1" filter="url(#filter0_d)">
<g clip-path="url(#clip0)">
<path id="Vector" d="M825.716 461.399H219.284C213.111 461.393 207.193 459.002 202.828 454.751C198.462 450.5 196.007 444.737 196 438.726V152.531C196.007 146.52 198.462 140.757 202.828 136.506C207.193 132.255 213.111 129.864 219.284 129.858H825.716C831.889 129.864 837.807 132.255 842.172 136.506C846.538 140.757 848.993 146.52 849 152.531V438.726C848.993 444.737 846.538 450.5 842.172 454.751C837.807 459.002 831.889 461.393 825.716 461.399Z" fill="#3F3D56"/>
<path id="Vector_2" d="M749 294.427H295V296.83H749V294.427Z" fill="#F0F0F0"/>
<path id="Vector_3" d="M749 335.269H295V337.672H749V335.269Z" fill="#F0F0F0"/>
<path id="Vector_4" d="M749 376.112H295V377.313H749V376.112Z" fill="#F0F0F0"/>
<g id="Group" opacity="0.2">
<path id="Vector_5" opacity="0.2" d="M748.752 278.255C735.264 264.02 712.727 261.343 693.36 265.659C673.993 269.974 656.605 280.072 638.598 288.26C620.59 296.447 600.596 302.904 581.088 299.242C562.25 295.705 546.688 283.34 530.532 273.246C514.375 263.151 494.691 254.833 476.422 260.544C453.808 267.614 443.389 292.324 427.146 309.229C418.751 317.967 408.487 324.792 397.084 329.22C385.681 333.648 373.418 335.57 361.168 334.849C348.918 334.128 336.981 330.783 326.206 325.05C315.43 319.317 306.08 311.338 298.821 301.679V377.223H747.567L748.752 278.255Z" fill="#6C63FF"/>
</g>
<path id="Vector_6" d="M749 213.944H295V216.347H749V213.944Z" fill="#F0F0F0"/>
<path id="Vector_7" d="M749 254.786H295V255.988H749V254.786Z" fill="#F0F0F0"/>
<path id="wave" d="M297.297 302.403C316.649 327.987 350.105 341.126 382.105 334.967C398.214 331.863 413.091 324.341 425 313.278C435.746 303.215 443.136 290.39 452.662 279.316C457.275 273.952 462.435 268.931 468.651 265.364C475.758 261.331 483.952 259.518 492.14 260.168C510.453 261.469 526.182 272.166 540.942 281.866C555.287 291.294 570.383 300.458 588.073 301.623C606.686 302.848 624.783 296.17 641.31 288.486C658.223 280.622 674.712 271.262 693.111 267.076C708.1 263.665 725.153 264.31 738.606 272.253C741.84 274.173 744.79 276.519 747.371 279.225C748.743 280.653 750.936 278.5 749.567 277.075C739.173 266.253 723.875 261.923 709.024 262.121C691.696 262.352 675.435 268.855 660.046 276.11C642.942 284.174 626.145 293.441 607.348 297.183C598.027 299.193 588.373 299.221 579.04 297.265C570.476 295.322 562.532 291.515 555.023 287.122C539.916 278.285 526.248 267.101 509.586 261.024C494.273 255.44 477.532 255.349 463.805 264.807C451.986 272.95 444.115 285.257 435.628 296.427C431.24 302.446 426.236 308.012 420.693 313.036C414.324 318.549 407.129 323.074 399.358 326.452C383.993 333.219 366.863 335.161 350.324 332.012C334.29 328.826 319.555 321.129 307.926 309.863C305.049 307.066 302.392 304.059 299.979 300.868C298.803 299.313 296.106 300.828 297.297 302.403H297.297Z" fill="#6C63FF"/>
<path id="Vector_8" d="M489.5 269.201C495.299 269.201 500 264.899 500 259.591C500 254.284 495.299 249.982 489.5 249.982C483.701 249.982 479 254.284 479 259.591C479 264.899 483.701 269.201 489.5 269.201Z" fill="#6C63FF"/>
<path id="Vector_9" d="M707 272.805C712.523 272.805 717 268.234 717 262.594C717 256.955 712.523 252.384 707 252.384C701.477 252.384 697 256.955 697 262.594C697 268.234 701.477 272.805 707 272.805Z" fill="#6C63FF"/>
<path id="Vector_10" d="M372.5 344.879C378.299 344.879 383 340.308 383 334.669C383 329.03 378.299 324.458 372.5 324.458C366.701 324.458 362 329.03 362 334.669C362 340.308 366.701 344.879 372.5 344.879Z" fill="#6C63FF"/>
<path id="Vector_11" d="M150.53 30.9012C149.23 31.427 148.064 32.2234 147.114 33.2342C146.165 34.2449 145.455 35.4456 145.036 36.7515C144.616 38.0574 144.496 39.4368 144.684 40.7926C144.873 42.1484 145.365 43.4475 146.127 44.5985L117 85.0102L126.135 95.0216L160.076 47.1257C161.982 45.7552 163.305 43.7533 163.793 41.4993C164.281 39.2452 163.9 36.8956 162.724 34.8958C161.547 32.8959 159.656 31.3847 157.408 30.6484C155.161 29.9122 152.714 30.0021 150.53 30.9012H150.53Z" fill="#FFB6B6"/>
<path id="Vector_12" d="M171.998 448.186H159.124L153 400.136L172 400.137L171.998 448.186Z" fill="#FFB6B6"/>
<path id="Vector_13" d="M174.999 460.198L134 460.197V459.705C134 455.694 135.682 451.848 138.674 449.012C141.667 446.176 145.726 444.582 149.958 444.582H149.959L175 444.583L174.999 460.198Z" fill="#2F2E41"/>
<path id="Vector_14" opacity="0.1" d="M53.9689 455.255L52.9689 454.979L53.9689 455.255Z" fill="black"/>
<path id="Vector_15" opacity="0.1" d="M54.6289 455.412L54.1389 455.327L54.6789 455.448L54.6289 455.412Z" fill="black"/>
<path id="Vector_16" d="M140 272.805L153.262 436.173H175.785L182 272.805H140Z" fill="#CACACA"/>
<path id="Vector_17" d="M175 103.355L166.064 98.9064L135.341 96.9346L138.572 81.808H114.335L105 113.55L161.746 123.851L175 103.355Z" fill="#CACACA"/>
<path id="Vector_18" d="M191 84.2106C207.569 84.2106 221 71.0342 221 54.7803C221 38.5263 207.569 25.3499 191 25.3499C174.431 25.3499 161 38.5263 161 54.7803C161 71.0342 174.431 84.2106 191 84.2106Z" fill="#2F2E41"/>
<path id="Vector_19" d="M167.929 39.2835C172.772 34.5565 173.753 27.8506 170.121 24.3054C166.489 20.7602 159.619 21.7182 154.776 26.4451C149.934 31.1721 148.952 37.878 152.584 41.4232C156.216 44.9684 163.086 44.0104 167.929 39.2835Z" fill="#2F2E41"/>
<path id="Vector_20" d="M222.556 29.9942C224.574 25.3835 221.104 19.517 214.805 16.891C208.507 14.265 201.766 15.8739 199.748 20.4846C197.73 25.0952 201.2 30.9617 207.499 33.5877C213.797 36.2137 220.538 34.6048 222.556 29.9942Z" fill="#2F2E41"/>
<path id="Vector_21" d="M192.5 86.613C206.583 86.613 218 75.5879 218 61.9877C218 48.3874 206.583 37.3623 192.5 37.3623C178.417 37.3623 167 48.3874 167 61.9877C167 75.5879 178.417 86.613 192.5 86.613Z" fill="#FFB6B6"/>
<path id="Vector_22" d="M166 46.4461C171.742 50.5311 178.558 52.7051 185.532 52.6763C183.045 54.4567 180.213 55.6593 177.231 56.2013C186.504 58.2542 196.087 58.3098 205.382 56.3645C207.448 56.0226 209.441 55.3159 211.275 54.2755C212.189 53.7489 212.985 53.0296 213.611 52.1646C214.238 51.2995 214.681 50.3081 214.912 49.2546C215.53 45.613 212.781 42.3045 209.924 40.0747C205.549 36.7129 200.505 34.3967 195.157 33.2937C189.809 32.1906 184.29 32.3283 179 33.6968C175.545 34.6184 172.085 36.1756 169.841 39.0388C167.597 41.902 166.933 46.3162 169.07 49.2645L166 46.4461Z" fill="#2F2E41"/>
<path id="Vector_23" d="M159 354.826L152.265 365.3L108 344.722L117.941 329.263L159 354.826Z" fill="#FFB6B6"/>
<path id="Vector_24" d="M171 358.451L148.92 392.929L148.479 392.653C144.877 390.401 142.328 386.828 141.392 382.719C140.456 378.61 141.211 374.302 143.49 370.743L143.49 370.742L156.976 349.684L171 358.451Z" fill="#2F2E41"/>
<path id="Vector_25" d="M226 90.2167L165.844 98.9807L155.507 122.25C155.507 122.25 132.483 132.628 147.795 157.544L129.945 220.644C129.945 220.644 46.4426 261.94 48.0221 289.638C49.6017 317.336 135.148 362.898 135.148 362.898L147.14 343.992L97.7177 296.276L143.99 281.914L180.488 283.597C180.488 283.597 220.141 253.373 196.548 203.014L212.819 156.539L226 90.2167Z" fill="#CACACA"/>
<path id="Vector_26" d="M182.11 233.155C183.517 233.104 184.896 232.755 186.149 232.132C187.402 231.51 188.499 230.628 189.363 229.55C190.226 228.472 190.835 227.224 191.147 225.894C191.458 224.563 191.465 223.183 191.166 221.849L233 193.959L228.049 181.511L179.01 214.763C176.731 215.398 174.772 216.82 173.503 218.761C172.234 220.701 171.745 223.025 172.127 225.292C172.509 227.56 173.736 229.612 175.576 231.061C177.416 232.51 179.74 233.255 182.11 233.155V233.155Z" fill="#FFB6B6"/>
<path id="Vector_27" d="M212.297 99.7442L224.738 90.2167C224.738 90.2167 241.22 102.349 241.241 111.418C241.261 120.486 244 192.453 244 192.453L221.778 207.938L201 195.673L215.283 177.949L208.548 136.597L212.297 99.7442Z" fill="#CACACA"/>
<path id="Vector_28" d="M399.963 461.399H5.03655C4.76164 461.399 4.49799 461.273 4.3036 461.048C4.10921 460.822 4 460.517 4 460.198C4 459.88 4.10921 459.574 4.3036 459.349C4.49799 459.123 4.76164 458.997 5.03655 458.997H399.963C400.238 458.997 400.502 459.123 400.696 459.349C400.891 459.574 401 459.88 401 460.198C401 460.517 400.891 460.822 400.696 461.048C400.502 461.273 400.238 461.399 399.963 461.399Z" fill="#3F3D56"/>
</g>
</g>
<defs>
<filter id="filter0_d" x="0" y="0" width="902" height="470" filterUnits="userSpaceOnUse" color-interpolation-filters="sRGB">
<feFlood flood-opacity="0" result="BackgroundImageFix"/>
<feColorMatrix in="SourceAlpha" type="matrix" values="0 0 0 0 0 0 0 0 0 0 0 0 0 0 0 0 0 0 127 0"/>
<feOffset dy="4"/>
<feGaussianBlur stdDeviation="2"/>
<feColorMatrix type="matrix" values="0 0 0 0 0 0 0 0 0 0 0 0 0 0 0 0 0 0 0.25 0"/>
<feBlend mode="normal" in2="BackgroundImageFix" result="effect1_dropShadow"/>
<feBlend mode="normal" in="SourceGraphic" in2="effect1_dropShadow" result="shape"/>
</filter>
<clipPath id="clip0">
<rect x="4" width="894" height="462" rx="1" fill="white"/>
</clipPath>
</defs>
</svg>
