<svg width="817" height="641" viewBox="0 0 817 641" fill="none" xmlns="http://www.w3.org/2000/svg">
<rect width="817" height="641" fill="white"/>
<g id="undraw_Dark_analytics_re_2kvy 1" clip-path="url(#clip0)">
<path id="Vector" d="M792.716 640H186.284C180.111 639.994 174.193 638.004 169.828 634.465C165.462 630.927 163.007 626.129 163 621.125V382.875C163.007 377.871 165.462 373.073 169.828 369.535C174.193 365.996 180.111 364.006 186.284 364H792.716C798.889 364.006 804.807 365.996 809.172 369.535C813.538 373.073 815.993 377.871 816 382.875V621.125C815.993 626.129 813.538 630.927 809.172 634.465C804.807 638.004 798.889 639.994 792.716 640Z" fill="#3F3D56"/>
<path id="Vector_2" d="M716 501H262V503H716V501Z" fill="#F0F0F0"/>
<path id="Vector_3" d="M716 535H262V537H716V535Z" fill="#F0F0F0"/>
<path id="Vector_4" d="M716 569H262V570H716V569Z" fill="#F0F0F0"/>
<g id="Group" opacity="0.2">
<path id="Vector_5" opacity="0.2" d="M715.752 487.537C702.264 475.686 679.727 473.458 660.36 477.051C640.993 480.644 623.605 489.05 605.598 495.866C587.59 502.681 567.596 508.057 548.088 505.008C529.25 502.064 513.688 491.77 497.532 483.367C481.375 474.963 461.691 468.039 443.422 472.793C420.808 478.679 410.389 499.249 394.146 513.322C385.751 520.596 375.487 526.278 364.084 529.964C352.681 533.65 340.418 535.25 328.168 534.65C315.918 534.05 303.981 531.265 293.206 526.493C282.43 521.72 273.08 515.078 265.821 507.037V569.926H714.567L715.752 487.537Z" fill="#6C63FF"/>
</g>
<path id="Vector_6" d="M716 434H262V436H716V434Z" fill="#F0F0F0"/>
<path id="Vector_7" d="M716 468H262V469H716V468Z" fill="#F0F0F0"/>
<path id="wave" d="M264.297 507.639C283.649 528.937 317.105 539.875 349.105 534.749C365.214 532.165 380.091 525.903 392 516.693C402.746 508.315 410.136 497.639 419.662 488.42C424.275 483.955 429.435 479.775 435.651 476.805C442.758 473.448 450.952 471.939 459.14 472.48C477.453 473.563 493.182 482.468 507.942 490.543C522.287 498.391 537.383 506.021 555.073 506.99C573.686 508.01 591.783 502.451 608.31 496.054C625.223 489.507 641.712 481.715 660.111 478.23C675.1 475.391 692.153 475.928 705.606 482.54C708.84 484.139 711.79 486.091 714.371 488.344C715.743 489.534 717.936 487.741 716.567 486.555C706.173 477.545 690.875 473.941 676.024 474.106C658.696 474.298 642.435 479.712 627.046 485.751C609.942 492.464 593.145 500.179 574.348 503.294C565.027 504.968 555.373 504.991 546.04 503.363C537.476 501.745 529.532 498.575 522.023 494.919C506.916 487.562 493.248 478.252 476.586 473.193C461.273 468.544 444.532 468.469 430.805 476.342C418.986 483.121 411.115 493.366 402.628 502.665C398.24 507.676 393.236 512.309 387.693 516.491C381.324 521.081 374.129 524.848 366.358 527.66C350.993 533.293 333.863 534.91 317.324 532.288C301.29 529.636 286.555 523.228 274.926 513.85C272.049 511.521 269.392 509.018 266.979 506.362C265.803 505.067 263.106 506.328 264.297 507.639H264.297Z" fill="#6C63FF"/>
<path id="Vector_8" d="M456.5 480C462.299 480 467 476.418 467 472C467 467.582 462.299 464 456.5 464C450.701 464 446 467.582 446 472C446 476.418 450.701 480 456.5 480Z" fill="#6C63FF"/>
<path id="Vector_9" d="M674 483C679.523 483 684 479.194 684 474.5C684 469.806 679.523 466 674 466C668.477 466 664 469.806 664 474.5C664 479.194 668.477 483 674 483Z" fill="#6C63FF"/>
<path id="Vector_10" d="M339.5 543C345.299 543 350 539.194 350 534.5C350 529.806 345.299 526 339.5 526C333.701 526 329 529.806 329 534.5C329 539.194 333.701 543 339.5 543Z" fill="#6C63FF"/>
<path id="Vector_11" d="M117.53 281.621C116.23 282.059 115.064 282.722 114.114 283.563C113.165 284.405 112.455 285.404 112.036 286.492C111.616 287.579 111.496 288.727 111.684 289.856C111.873 290.984 112.365 292.066 113.127 293.024L84 326.666L93.1347 335L127.076 295.128C128.982 293.987 130.305 292.32 130.793 290.444C131.281 288.568 130.9 286.612 129.724 284.947C128.547 283.282 126.656 282.024 124.408 281.411C122.161 280.798 119.714 280.873 117.53 281.621H117.53Z" fill="#FFB6B6"/>
<path id="Vector_12" d="M138.998 629H126.124L120 589L139 589.001L138.998 629Z" fill="#FFB6B6"/>
<path id="Vector_13" d="M141.999 639L101 638.999V638.59C101 635.251 102.682 632.049 105.674 629.688C108.667 627.327 112.726 626 116.958 626H116.959L142 626.001L141.999 639Z" fill="#2F2E41"/>
<path id="Vector_14" opacity="0.1" d="M20.9689 634.885L19.9689 634.655L20.9689 634.885Z" fill="black"/>
<path id="Vector_15" opacity="0.1" d="M21.6289 635.015L21.1389 634.945L21.6789 635.045L21.6289 635.015Z" fill="black"/>
<path id="Vector_16" d="M107 483L120.262 619H142.785L149 483H107Z" fill="#CACACA"/>
<path id="Vector_17" d="M142 341.937L133.064 338.234L102.341 336.592L105.572 324H81.3346L72 350.424L128.746 359L142 341.937Z" fill="#CACACA"/>
<path id="Vector_18" d="M158 326C174.569 326 188 315.031 188 301.5C188 287.969 174.569 277 158 277C141.431 277 128 287.969 128 301.5C128 315.031 141.431 326 158 326Z" fill="#2F2E41"/>
<path id="Vector_19" d="M134.929 288.599C139.772 284.664 140.753 279.082 137.121 276.13C133.489 273.179 126.619 273.977 121.776 277.912C116.934 281.847 115.952 287.429 119.584 290.381C123.216 293.332 130.086 292.534 134.929 288.599Z" fill="#2F2E41"/>
<path id="Vector_20" d="M189.556 280.866C191.573 277.028 188.104 272.144 181.805 269.958C175.507 267.772 168.766 269.112 166.748 272.95C164.73 276.788 168.2 281.672 174.498 283.858C180.797 286.044 187.538 284.705 189.556 280.866Z" fill="#2F2E41"/>
<path id="Vector_21" d="M159.5 328C173.583 328 185 318.822 185 307.5C185 296.178 173.583 287 159.5 287C145.417 287 134 296.178 134 307.5C134 318.822 145.417 328 159.5 328Z" fill="#FFB6B6"/>
<path id="Vector_22" d="M133 294.562C138.742 297.963 145.558 299.773 152.532 299.749C150.045 301.231 147.213 302.232 144.231 302.683C153.504 304.392 163.087 304.438 172.382 302.819C174.448 302.534 176.441 301.946 178.275 301.08C179.189 300.641 179.985 300.043 180.611 299.323C181.238 298.602 181.681 297.777 181.912 296.9C182.53 293.868 179.781 291.114 176.924 289.258C172.549 286.459 167.505 284.531 162.157 283.613C156.809 282.695 151.29 282.809 146 283.949C142.545 284.716 139.085 286.012 136.841 288.396C134.597 290.779 133.933 294.454 136.07 296.908L133 294.562Z" fill="#2F2E41"/>
<path id="Vector_23" d="M126 551.28L119.265 560L75 542.869L84.9411 530L126 551.28Z" fill="#FFB6B6"/>
<path id="Vector_24" d="M138 554.298L115.92 583L115.479 582.77C111.877 580.896 109.328 577.921 108.392 574.5C107.456 571.08 108.211 567.494 110.49 564.531L110.49 564.53L123.976 547L138 554.298Z" fill="#2F2E41"/>
<path id="Vector_25" d="M193 331L132.844 338.296L122.507 357.667C122.507 357.667 99.4827 366.306 114.795 387.048L96.9448 439.577C96.9448 439.577 13.4426 473.956 15.0221 497.013C16.6017 520.071 102.148 558 102.148 558L114.14 542.261L64.7177 502.539L110.99 490.583L147.488 491.984C147.488 491.984 187.141 466.823 163.548 424.901L179.819 386.212L193 331Z" fill="#CACACA"/>
<path id="Vector_26" d="M149.11 449.993C150.517 449.95 151.896 449.66 153.149 449.141C154.402 448.623 155.499 447.889 156.363 446.992C157.226 446.094 157.835 445.055 158.147 443.948C158.458 442.84 158.465 441.691 158.166 440.581L200 417.363L195.049 407L146.01 434.682C143.731 435.21 141.772 436.394 140.503 438.01C139.234 439.625 138.745 441.56 139.127 443.447C139.509 445.334 140.736 447.043 142.576 448.25C144.416 449.456 146.74 450.076 149.11 449.993V449.993Z" fill="#FFB6B6"/>
<path id="Vector_27" d="M179.297 338.931L191.738 331C191.738 331 208.22 341.1 208.241 348.649C208.261 356.198 211 416.109 211 416.109L188.778 429L168 418.789L182.283 404.035L175.548 369.611L179.297 338.931Z" fill="#CACACA"/>
<path id="Vector_28" d="M366.963 640H-27.9634C-28.2384 640 -28.502 639.895 -28.6964 639.707C-28.8908 639.52 -29 639.265 -29 639C-29 638.735 -28.8908 638.48 -28.6964 638.293C-28.502 638.105 -28.2384 638 -27.9634 638H366.963C367.238 638 367.502 638.105 367.696 638.293C367.891 638.48 368 638.735 368 639C368 639.265 367.891 639.52 367.696 639.707C367.502 639.895 367.238 640 366.963 640Z" fill="#3F3D56"/>
</g>
<defs>
<clipPath id="clip0">
<rect width="816.22" height="640.5" fill="white"/>
</clipPath>
</defs>
</svg>
